<?xml version="1.0" standalone="no"?>
<!DOCTYPE svg PUBLIC "-//W3C//DTD SVG 20010904//EN"
 "http://www.w3.org/TR/2001/REC-SVG-20010904/DTD/svg10.dtd">
<svg version="1.0" xmlns="http://www.w3.org/2000/svg"
 width="423.000000pt" height="177.000000pt" viewBox="0 0 423.000000 177.000000"
 preserveAspectRatio="xMidYMid meet">

<g transform="translate(0.000000,177.000000) scale(0.100000,-0.100000)"
fill="#000000" stroke="none">
<path d="M353 1450 c-41 -24 -53 -48 -53 -102 0 -64 26 -96 159 -198 133 -101
166 -135 176 -180 8 -38 -20 -100 -55 -117 -34 -17 -105 -16 -138 1 -54 28
-102 96 -117 164 -8 37 -6 36 -40 20 -32 -14 -31 -22 5 -85 51 -88 114 -124
218 -124 101 0 172 58 172 142 0 83 -30 120 -198 246 -62 47 -119 98 -127 113
-42 81 13 141 117 127 50 -7 92 -45 114 -104 18 -47 19 -48 52 -29 l23 12 -33
45 c-49 64 -99 89 -178 89 -47 0 -74 -5 -97 -20z"/>
<path d="M2865 1150 l0 -312 140 4 c127 3 146 6 190 29 64 32 89 75 88 146 -2
74 -30 115 -100 149 l-56 28 33 11 c51 17 80 58 80 111 0 109 -48 137 -240
142 l-135 4 0 -312z m201 289 c64 -16 94 -56 94 -123 0 -85 -42 -116 -156
-116 l-64 0 0 118 c0 65 3 122 7 125 10 11 69 8 119 -4z m58 -282 c57 -32 78
-77 74 -156 -4 -58 -7 -66 -40 -97 -42 -38 -100 -56 -166 -52 l-47 3 -3 155
c-1 85 0 161 3 168 8 22 129 7 179 -21z"/>
<path d="M3460 1370 l-25 -19 28 -28 27 -28 28 28 27 28 -24 20 c-28 23 -30
23 -61 -1z"/>
<path d="M1725 1248 c-11 -6 -30 -20 -42 -31 -20 -17 -27 -18 -67 -8 -91 23
-168 8 -223 -43 -31 -28 -37 -40 -41 -87 -4 -49 -1 -58 24 -89 23 -26 26 -34
14 -38 -26 -9 -80 -69 -80 -90 0 -11 9 -30 19 -43 19 -23 19 -24 0 -48 -24
-30 -24 -52 1 -83 55 -71 287 -60 412 19 92 57 89 161 -6 179 -42 7 -64 3
-174 -37 -130 -48 -202 -41 -202 18 0 14 13 37 29 54 28 28 30 28 65 14 77
-32 191 -10 245 48 44 48 37 145 -13 186 -32 27 -12 41 69 50 37 4 51 11 53
24 3 13 -3 17 -30 17 -18 0 -42 -6 -53 -12z m-124 -61 c65 -44 76 -157 20
-219 -20 -23 -38 -31 -74 -35 -43 -5 -49 -3 -81 29 -114 114 5 313 135 225z
m135 -352 c15 -23 15 -27 -3 -62 -14 -30 -32 -45 -88 -73 -64 -32 -77 -35
-160 -35 -125 0 -178 34 -144 93 12 21 22 25 69 27 37 2 84 15 140 38 105 45
162 48 186 12z"/>
<path d="M2090 1213 c-46 -16 -130 -57 -130 -62 0 -13 24 -31 41 -31 10 0 28
14 40 31 24 34 73 59 114 59 38 0 65 -33 65 -80 0 -50 -17 -62 -125 -85 -96
-21 -145 -60 -145 -117 0 -66 45 -100 132 -99 57 0 98 22 124 65 l19 31 3 -42
c3 -41 4 -43 36 -43 l33 0 -4 148 c-3 81 -9 159 -15 174 -5 15 -25 34 -43 42
-32 15 -114 20 -145 9z m114 -298 c-26 -55 -95 -81 -144 -55 -31 16 -44 72
-26 113 17 41 36 53 120 76 l61 16 3 -57 c2 -39 -3 -70 -14 -93z"/>
<path d="M828 1203 c-9 -19 9 -300 21 -324 17 -35 46 -51 96 -51 49 0 91 19
120 53 l20 24 -25 -22 c-26 -22 -71 -43 -95 -43 -7 0 -23 9 -36 19 -23 18 -24
26 -29 183 l-5 163 -32 3 c-17 2 -33 -1 -35 -5z"/>
<path d="M1097 1082 c4 -90 2 -134 -6 -150 -7 -13 -8 -22 -2 -22 6 0 7 -15 4
-35 -6 -35 -5 -35 31 -35 l36 0 0 185 0 185 -35 0 -34 0 6 -128z"/>
<path d="M2465 1025 l0 -185 36 0 36 0 -5 123 -5 122 42 38 c42 38 49 40 112
37 26 -1 38 3 43 16 20 52 -73 40 -138 -17 -24 -21 -47 -39 -50 -39 -3 0 -3
20 1 45 l6 45 -39 0 -39 0 0 -185z"/>
<path d="M3459 1208 c0 -2 -1 -85 -2 -186 l-2 -182 35 0 35 0 1 185 0 185 -33
0 c-18 0 -33 -1 -34 -2z"/>
<path d="M3707 1204 c-3 -3 -3 -12 0 -20 6 -17 48 -18 90 -3 17 5 56 9 88 7
l57 -3 -126 -163 c-69 -89 -126 -167 -126 -172 0 -6 67 -10 180 -10 178 0 181
0 170 20 -13 24 -17 24 -85 5 -32 -10 -81 -15 -120 -13 l-67 3 126 163 c69 89
126 169 126 177 0 13 -25 15 -153 15 -85 0 -156 -3 -160 -6z"/>
<path d="M3054 761 c-110 -40 -234 -149 -234 -206 0 -30 20 -45 133 -98 53
-25 97 -52 97 -59 0 -7 -30 -37 -66 -67 -101 -84 -146 -149 -118 -171 21 -18
115 31 154 80 34 43 60 99 60 129 0 13 21 36 55 62 31 23 53 44 51 46 -5 6
-92 -52 -101 -67 -3 -5 -24 3 -46 19 -21 16 -69 41 -107 56 -83 33 -92 40 -92
76 0 40 82 119 171 163 84 42 125 46 139 14 l9 -23 0 22 c1 20 -25 44 -46 43
-4 -1 -31 -9 -59 -19z m1 -430 c-12 -56 -122 -161 -170 -161 -22 0 -19 13 15
55 34 43 151 147 158 141 2 -3 1 -18 -3 -35z"/>
<path d="M3371 759 c-39 -37 -99 -137 -132 -223 -43 -109 -53 -242 -20 -275
11 -11 27 -21 34 -21 27 0 79 43 123 102 40 54 46 59 41 33 -26 -132 -34 -209
-22 -213 6 -1 10 15 11 35 1 66 37 244 51 259 8 8 25 14 38 14 13 0 27 5 31
11 5 8 -3 10 -27 6 -19 -4 -74 -11 -124 -17 -112 -14 -127 -25 -22 -16 l78 6
-12 -23 c-7 -12 -29 -48 -50 -79 -64 -93 -124 -123 -147 -73 -28 62 -5 174 67
320 53 108 108 172 137 161 15 -6 16 -17 11 -87 -6 -94 9 -96 19 -3 8 71 -5
104 -39 104 -13 0 -34 -10 -46 -21z"/>
<path d="M1463 573 c207 -2 547 -2 755 0 207 1 37 2 -378 2 -415 0 -585 -1
-377 -2z"/>
</g>
</svg>
